<svg width="83" height="32" viewBox="0 0 83 32" fill="none" xmlns="http://www.w3.org/2000/svg">
<path d="M26.164 27L26.632 24.64H25.872L25.924 24.376H27.76L27.708 24.64H26.944L26.476 27H26.164ZM28.254 27.048C28.0193 27.048 27.8313 26.9773 27.69 26.836C27.5487 26.6947 27.478 26.4947 27.478 26.236C27.478 26.052 27.5073 25.8853 27.566 25.736C27.6273 25.5867 27.7073 25.4573 27.806 25.348C27.9073 25.2387 28.0193 25.1547 28.142 25.096C28.2647 25.0373 28.3887 25.008 28.514 25.008C28.6607 25.008 28.778 25.0387 28.866 25.1C28.9567 25.1613 29.022 25.2453 29.062 25.352C29.102 25.4587 29.122 25.5787 29.122 25.712C29.122 25.7653 29.118 25.816 29.11 25.864C29.1047 25.9093 29.0967 25.952 29.086 25.992C29.0753 26.032 29.0647 26.068 29.054 26.1H27.706L27.738 25.864H28.838C28.846 25.832 28.8513 25.8027 28.854 25.776C28.8567 25.7493 28.858 25.72 28.858 25.688C28.858 25.6133 28.846 25.544 28.822 25.48C28.798 25.4133 28.758 25.36 28.702 25.32C28.6487 25.2773 28.5753 25.256 28.482 25.256C28.4047 25.256 28.3247 25.2773 28.242 25.32C28.1593 25.3627 28.0833 25.4253 28.014 25.508C27.9473 25.588 27.8927 25.6853 27.85 25.8C27.8073 25.9147 27.786 26.044 27.786 26.188C27.786 26.3453 27.8087 26.468 27.854 26.556C27.8993 26.644 27.962 26.7067 28.042 26.744C28.122 26.7787 28.2127 26.796 28.314 26.796C28.3993 26.796 28.478 26.7827 28.55 26.756C28.6247 26.7267 28.6927 26.6893 28.754 26.644L28.87 26.836C28.7927 26.8973 28.702 26.948 28.598 26.988C28.4967 27.028 28.382 27.048 28.254 27.048ZM30.1959 27.048C30.0545 27.048 29.9305 27.0173 29.8239 26.956C29.7172 26.8947 29.6332 26.8067 29.5719 26.692C29.5105 26.5747 29.4799 26.4333 29.4799 26.268C29.4799 26.0867 29.5092 25.92 29.5679 25.768C29.6292 25.6133 29.7092 25.48 29.8079 25.368C29.9092 25.2533 30.0252 25.1653 30.1559 25.104C30.2865 25.04 30.4225 25.008 30.5639 25.008C30.6839 25.008 30.7852 25.0307 30.8679 25.076C30.9532 25.1213 31.0199 25.1773 31.0679 25.244L30.8959 25.416C30.8505 25.3627 30.7999 25.324 30.7439 25.3C30.6905 25.2733 30.6239 25.26 30.5439 25.26C30.4479 25.26 30.3545 25.2867 30.2639 25.34C30.1759 25.3933 30.0959 25.4653 30.0239 25.556C29.9545 25.6467 29.8985 25.752 29.8559 25.872C29.8159 25.9893 29.7959 26.1147 29.7959 26.248C29.7959 26.4213 29.8332 26.556 29.9079 26.652C29.9852 26.748 30.0999 26.796 30.2519 26.796C30.3319 26.796 30.4105 26.7787 30.4879 26.744C30.5679 26.7067 30.6345 26.668 30.6879 26.628L30.8199 26.804C30.7505 26.868 30.6625 26.9253 30.5559 26.976C30.4519 27.024 30.3319 27.048 30.1959 27.048ZM31.2742 27L31.8422 24.152H32.1502L31.9582 25.092L31.8942 25.336H31.9102C32.0195 25.24 32.1288 25.1613 32.2382 25.1C32.3475 25.0387 32.4608 25.008 32.5782 25.008C32.7435 25.008 32.8608 25.052 32.9302 25.14C33.0022 25.2253 33.0382 25.3427 33.0382 25.492C33.0382 25.5373 33.0355 25.58 33.0302 25.62C33.0275 25.66 33.0195 25.7067 33.0062 25.76L32.7582 27H32.4542L32.6942 25.8C32.7048 25.7467 32.7128 25.704 32.7182 25.672C32.7235 25.64 32.7262 25.6067 32.7262 25.572C32.7262 25.4733 32.7022 25.3987 32.6542 25.348C32.6088 25.2973 32.5368 25.272 32.4382 25.272C32.3608 25.272 32.2742 25.3 32.1782 25.356C32.0848 25.412 31.9768 25.5013 31.8542 25.624L31.5782 27H31.2742ZM35.1287 27.048C34.9554 27.048 34.794 27.0093 34.6447 26.932C34.4954 26.8547 34.3687 26.74 34.2647 26.588L34.4647 26.416C34.5447 26.528 34.6434 26.6173 34.7607 26.684C34.878 26.748 35.0127 26.78 35.1647 26.78C35.2687 26.78 35.362 26.76 35.4447 26.72C35.53 26.68 35.5967 26.624 35.6447 26.552C35.6954 26.48 35.7207 26.3947 35.7207 26.296C35.7207 26.1947 35.6914 26.1107 35.6327 26.044C35.574 25.9747 35.494 25.9107 35.3927 25.852L35.0927 25.672C34.9807 25.6053 34.8847 25.5227 34.8047 25.424C34.7247 25.3253 34.6847 25.2027 34.6847 25.056C34.6847 24.9253 34.7194 24.8053 34.7887 24.696C34.858 24.584 34.954 24.4947 35.0767 24.428C35.1994 24.3613 35.338 24.328 35.4927 24.328C35.65 24.328 35.7927 24.3627 35.9207 24.432C36.0514 24.5013 36.1554 24.5907 36.2327 24.7L36.0447 24.88C35.978 24.8 35.8967 24.7333 35.8007 24.68C35.7047 24.624 35.5967 24.596 35.4767 24.596C35.378 24.596 35.2927 24.616 35.2207 24.656C35.1514 24.696 35.0967 24.7493 35.0567 24.816C35.0194 24.88 35.0007 24.948 35.0007 25.02C35.0007 25.1213 35.0327 25.204 35.0967 25.268C35.1634 25.3293 35.2447 25.3893 35.3407 25.448L35.6447 25.628C35.77 25.7027 35.8674 25.788 35.9367 25.884C36.006 25.9773 36.0407 26.0973 36.0407 26.244C36.0407 26.4013 36.0007 26.54 35.9207 26.66C35.8434 26.78 35.7367 26.8747 35.6007 26.944C35.4647 27.0133 35.3074 27.048 35.1287 27.048ZM37.2321 27.048C36.9975 27.048 36.8095 26.9773 36.6681 26.836C36.5268 26.6947 36.4561 26.4947 36.4561 26.236C36.4561 26.052 36.4855 25.8853 36.5441 25.736C36.6055 25.5867 36.6855 25.4573 36.7841 25.348C36.8855 25.2387 36.9975 25.1547 37.1201 25.096C37.2428 25.0373 37.3668 25.008 37.4921 25.008C37.6388 25.008 37.7561 25.0387 37.8441 25.1C37.9348 25.1613 38.0001 25.2453 38.0401 25.352C38.0801 25.4587 38.1001 25.5787 38.1001 25.712C38.1001 25.7653 38.0961 25.816 38.0881 25.864C38.0828 25.9093 38.0748 25.952 38.0641 25.992C38.0535 26.032 38.0428 26.068 38.0321 26.1H36.6841L36.7161 25.864H37.8161C37.8241 25.832 37.8295 25.8027 37.8321 25.776C37.8348 25.7493 37.8361 25.72 37.8361 25.688C37.8361 25.6133 37.8241 25.544 37.8001 25.48C37.7761 25.4133 37.7361 25.36 37.6801 25.32C37.6268 25.2773 37.5535 25.256 37.4601 25.256C37.3828 25.256 37.3028 25.2773 37.2201 25.32C37.1375 25.3627 37.0615 25.4253 36.9921 25.508C36.9255 25.588 36.8708 25.6853 36.8281 25.8C36.7855 25.9147 36.7641 26.044 36.7641 26.188C36.7641 26.3453 36.7868 26.468 36.8321 26.556C36.8775 26.644 36.9401 26.7067 37.0201 26.744C37.1001 26.7787 37.1908 26.796 37.2921 26.796C37.3775 26.796 37.4561 26.7827 37.5281 26.756C37.6028 26.7267 37.6708 26.6893 37.7321 26.644L37.8481 26.836C37.7708 26.8973 37.6801 26.948 37.5761 26.988C37.4748 27.028 37.3601 27.048 37.2321 27.048ZM39.174 27.048C39.0327 27.048 38.9087 27.0173 38.802 26.956C38.6953 26.8947 38.6113 26.8067 38.55 26.692C38.4887 26.5747 38.458 26.4333 38.458 26.268C38.458 26.0867 38.4873 25.92 38.546 25.768C38.6073 25.6133 38.6873 25.48 38.786 25.368C38.8873 25.2533 39.0033 25.1653 39.134 25.104C39.2647 25.04 39.4007 25.008 39.542 25.008C39.662 25.008 39.7633 25.0307 39.846 25.076C39.9313 25.1213 39.998 25.1773 40.046 25.244L39.874 25.416C39.8287 25.3627 39.778 25.324 39.722 25.3C39.6687 25.2733 39.602 25.26 39.522 25.26C39.426 25.26 39.3327 25.2867 39.242 25.34C39.154 25.3933 39.074 25.4653 39.002 25.556C38.9327 25.6467 38.8767 25.752 38.834 25.872C38.794 25.9893 38.774 26.1147 38.774 26.248C38.774 26.4213 38.8113 26.556 38.886 26.652C38.9633 26.748 39.078 26.796 39.23 26.796C39.31 26.796 39.3887 26.7787 39.466 26.744C39.546 26.7067 39.6127 26.668 39.666 26.628L39.798 26.804C39.7287 26.868 39.6407 26.9253 39.534 26.976C39.43 27.024 39.31 27.048 39.174 27.048ZM40.8003 27.048C40.6376 27.048 40.5189 27.004 40.4443 26.916C40.3723 26.828 40.3363 26.7107 40.3363 26.564C40.3363 26.5187 40.3389 26.476 40.3443 26.436C40.3496 26.396 40.3576 26.3493 40.3683 26.296L40.6163 25.056H40.9243L40.6803 26.256C40.6723 26.3067 40.6643 26.3493 40.6563 26.384C40.6509 26.416 40.6483 26.4493 40.6483 26.484C40.6483 26.58 40.6709 26.6547 40.7163 26.708C40.7643 26.7587 40.8389 26.784 40.9403 26.784C41.0149 26.784 41.0989 26.756 41.1923 26.7C41.2883 26.6413 41.3963 26.552 41.5163 26.432L41.7883 25.056H42.0923L41.7083 27H41.4563L41.4843 26.704H41.4683C41.3669 26.7973 41.2589 26.8787 41.1443 26.948C41.0323 27.0147 40.9176 27.048 40.8003 27.048ZM42.4221 27L42.8101 25.056H43.0621L43.0181 25.428H43.0341C43.1115 25.3107 43.2008 25.212 43.3021 25.132C43.4035 25.0493 43.5141 25.008 43.6341 25.008C43.6688 25.008 43.7021 25.0107 43.7341 25.016C43.7661 25.0213 43.7941 25.0307 43.8181 25.044L43.7101 25.312C43.6915 25.3013 43.6675 25.2947 43.6381 25.292C43.6115 25.2867 43.5795 25.284 43.5421 25.284C43.4461 25.284 43.3475 25.3253 43.2461 25.408C43.1448 25.4907 43.0528 25.612 42.9701 25.772L42.7261 27H42.4221ZM43.8693 27L44.2573 25.056H44.5653L44.1773 27H43.8693ZM44.5093 24.652C44.4586 24.652 44.4133 24.6373 44.3733 24.608C44.3333 24.576 44.3133 24.5307 44.3133 24.472C44.3133 24.408 44.3373 24.3533 44.3853 24.308C44.4333 24.2627 44.4866 24.24 44.5453 24.24C44.5986 24.24 44.644 24.256 44.6813 24.288C44.7213 24.32 44.7413 24.3653 44.7413 24.424C44.7413 24.4907 44.7186 24.5453 44.6733 24.588C44.628 24.6307 44.5733 24.652 44.5093 24.652ZM45.5065 27.036C45.3439 27.036 45.2265 26.9947 45.1545 26.912C45.0852 26.8267 45.0505 26.7213 45.0505 26.596C45.0505 26.5613 45.0519 26.528 45.0545 26.496C45.0599 26.4613 45.0652 26.4253 45.0705 26.388L45.2985 25.304H45.0105L45.0625 25.076L45.3625 25.056L45.5265 24.436H45.7825L45.6625 25.056H46.1545L46.1025 25.304H45.6025L45.3745 26.404C45.3719 26.428 45.3692 26.4507 45.3665 26.472C45.3639 26.4933 45.3625 26.5187 45.3625 26.548C45.3625 26.6253 45.3799 26.684 45.4145 26.724C45.4519 26.764 45.5132 26.784 45.5985 26.784C45.6385 26.784 45.6759 26.78 45.7105 26.772C45.7452 26.7613 45.7772 26.7493 45.8065 26.736L45.8785 26.94C45.8359 26.964 45.7825 26.9853 45.7185 27.004C45.6545 27.0253 45.5839 27.036 45.5065 27.036ZM46.1434 27.836C46.1007 27.836 46.0594 27.832 46.0194 27.824C45.9767 27.816 45.9381 27.8013 45.9034 27.78L45.9954 27.552C46.0381 27.5707 46.0887 27.58 46.1474 27.58C46.2461 27.58 46.3394 27.5413 46.4274 27.464C46.5154 27.3867 46.5927 27.2813 46.6594 27.148L46.7234 27.02L46.3874 25.056H46.7034L46.8554 26.144C46.8687 26.232 46.8807 26.3267 46.8914 26.428C46.9021 26.5267 46.9127 26.6187 46.9234 26.704H46.9394C46.9821 26.6133 47.0274 26.52 47.0754 26.424C47.1234 26.3253 47.1701 26.232 47.2154 26.144L47.7754 25.056H48.0874L46.9674 27.144C46.8901 27.2933 46.8101 27.4187 46.7274 27.52C46.6447 27.624 46.5554 27.7027 46.4594 27.756C46.3661 27.8093 46.2607 27.836 46.1434 27.836Z" fill="#1BA7FC"/>
<path d="M14.5 11V23L18.03 20.7938C18.3224 20.611 18.5 20.2905 18.5 19.9458V10.0608C18.5 9.71247 18.3187 9.38921 18.0215 9.20755L10.0218 4.31885C9.70149 4.12313 9.29858 4.12324 8.97841 4.31913L0.478096 9.51998C0.1811 9.7017 0 10.0248 0 10.373V19.9412C0 20.2885 0.180155 20.6109 0.475902 20.7929L6.5 24.5V11H14.5Z" fill="white"/>
<path d="M29.8018 16.1396C29.8018 17.1423 29.599 18.0195 29.1934 18.7715C28.7923 19.5189 28.2249 20.0999 27.4912 20.5146C26.762 20.9294 25.9053 21.1367 24.9209 21.1367C23.9137 21.1367 23.0479 20.9362 22.3232 20.5352C21.5986 20.1296 21.0426 19.5531 20.6553 18.8057C20.2679 18.0583 20.0742 17.1696 20.0742 16.1396C20.0742 15.1097 20.2656 14.2279 20.6484 13.4941C21.0358 12.7604 21.5918 12.1999 22.3164 11.8125C23.0456 11.4206 23.9183 11.2246 24.9346 11.2246C25.9554 11.2246 26.8281 11.4229 27.5527 11.8193C28.2773 12.2113 28.8333 12.7741 29.2207 13.5078C29.6081 14.2415 29.8018 15.1188 29.8018 16.1396ZM27.7441 16.1396C27.7441 15.1006 27.498 14.2871 27.0059 13.6992C26.5137 13.1068 25.8232 12.8105 24.9346 12.8105C24.0322 12.8105 23.335 13.1045 22.8428 13.6924C22.3506 14.2757 22.1045 15.0915 22.1045 16.1396C22.1045 16.8415 22.2184 17.4476 22.4463 17.958C22.6742 18.4684 22.9977 18.8626 23.417 19.1406C23.8408 19.4141 24.3421 19.5508 24.9209 19.5508C25.8232 19.5508 26.5182 19.2546 27.0059 18.6621C27.498 18.0697 27.7441 17.2288 27.7441 16.1396ZM40.1989 16.1123C40.1989 17.1423 39.9984 18.0218 39.5974 18.751C39.2009 19.4801 38.6495 20.0384 37.9431 20.4258C37.2413 20.8086 36.4301 21 35.5095 21H31.613V11.3682H35.0993C36.7217 11.3682 37.9773 11.7783 38.8659 12.5986C39.7546 13.4144 40.1989 14.5856 40.1989 16.1123ZM38.1687 16.1123C38.1687 15.0778 37.8998 14.2894 37.362 13.7471C36.8243 13.2002 36.0564 12.9268 35.0583 12.9268H33.6296V19.4414H35.3386C35.9174 19.4414 36.4164 19.307 36.8357 19.0381C37.2595 18.7646 37.5876 18.3796 37.82 17.8828C38.0525 17.3861 38.1687 16.7959 38.1687 16.1123ZM49.8647 19.4414V21H42.0102V11.3682H49.5844V12.9268H44.0268V15.3467H49.1674V16.9053H44.0268V19.4414H49.8647Z" fill="white"/>
<path d="M52.8824 24.4001C54.7317 27.3981 57.5187 29.702 60.8111 30.9545C64.1034 32.2069 67.717 32.3379 71.0914 31.3271C74.4657 30.3163 77.4122 28.2201 79.4737 25.3639C81.5353 22.5076 82.5966 19.0509 82.4931 15.5299C82.3896 12.0089 81.1271 8.62048 78.9013 5.89024C76.6756 3.16001 73.6111 1.24057 70.1832 0.4297C66.7553 -0.381176 63.1556 -0.0381685 59.9425 1.40551C56.7294 2.84919 54.0826 5.31285 52.4125 8.41431L55.3657 10.0045C56.6857 7.55324 58.7777 5.60605 61.3172 4.46501C63.8567 3.32398 66.7017 3.05288 69.4111 3.69376C72.1204 4.33465 74.5424 5.85171 76.3016 8.00959C78.0607 10.1675 79.0586 12.8456 79.1404 15.6284C79.2222 18.4113 78.3834 21.1434 76.754 23.4009C75.1246 25.6584 72.7958 27.3151 70.1289 28.114C67.4619 28.9129 64.6058 28.8094 62.0036 27.8195C59.4015 26.8296 57.1988 25.0086 55.7371 22.6391L52.8824 24.4001Z" fill="#19A8F6"/>
<path d="M56.1758 17.165L56.5986 16.8982L56.1758 16.2281L55.7529 16.8982L56.1758 17.165ZM53.7559 21V21.5H54.0316L54.1787 21.2668L53.7559 21ZM51.623 21L51.2055 20.725L50.6951 21.5H51.623V21ZM54.959 15.9346L55.3766 16.2096L55.5591 15.9324L55.3745 15.6565L54.959 15.9346ZM51.9033 11.3682V10.8682H50.9671L51.4878 11.6462L51.9033 11.3682ZM54.0361 11.3682L54.4595 11.1021L54.3124 10.8682H54.0361V11.3682ZM56.1758 14.7725L55.7525 15.0385L56.1758 15.7121L56.5991 15.0385L56.1758 14.7725ZM58.3154 11.3682V10.8682H58.0391L57.8921 11.1021L58.3154 11.3682ZM60.4346 11.3682L60.8556 11.6379L61.3488 10.8682H60.4346V11.3682ZM57.5088 15.9346L57.0878 15.6648L56.916 15.9329L57.0863 16.202L57.5088 15.9346ZM60.7148 21V21.5H61.623L61.1373 20.7326L60.7148 21ZM58.5957 21L58.1729 21.2668L58.32 21.5H58.5957V21ZM55.7529 16.8982L53.333 20.7332L54.1787 21.2668L56.5986 17.4319L55.7529 16.8982ZM53.7559 20.5H51.623V21.5H53.7559V20.5ZM52.0406 21.275L55.3766 16.2096L54.5414 15.6596L51.2055 20.725L52.0406 21.275ZM55.3745 15.6565L52.3189 11.0901L51.4878 11.6462L54.5434 16.2126L55.3745 15.6565ZM51.9033 11.8682H54.0361V10.8682H51.9033V11.8682ZM53.6128 11.6342L55.7525 15.0385L56.5991 14.5064L54.4595 11.1021L53.6128 11.6342ZM56.5991 15.0385L58.7388 11.6342L57.8921 11.1021L55.7525 14.5064L56.5991 15.0385ZM58.3154 11.8682H60.4346V10.8682H58.3154V11.8682ZM60.0136 11.0984L57.0878 15.6648L57.9298 16.2043L60.8556 11.6379L60.0136 11.0984ZM57.0863 16.202L60.2924 21.2674L61.1373 20.7326L57.9313 15.6672L57.0863 16.202ZM60.7148 20.5H58.5957V21.5H60.7148V20.5ZM59.0186 20.7332L56.5986 16.8982L55.7529 17.4319L58.1729 21.2668L59.0186 20.7332Z" fill="#1BA2FC"/>
<path d="M57.989 21.25C59.1448 23.1238 60.8867 24.5637 62.9444 25.3465C65.0021 26.1293 67.2606 26.2112 69.3696 25.5794C71.4786 24.9477 73.3201 23.6376 74.6086 21.8524C75.897 20.0673 76.5604 17.9068 76.4957 15.7062C76.431 13.5056 75.6419 11.3878 74.2508 9.6814C72.8597 7.975 70.9444 6.77536 68.802 6.26856C66.6595 5.76177 64.4097 5.97614 62.4016 6.87845C60.3934 7.78075 58.7391 9.32053 57.6953 11.2589L60.3863 12.708C61.1111 11.362 62.2598 10.2928 63.6542 9.66628C65.0486 9.03975 66.6108 8.89089 68.0984 9.2428C69.5861 9.5947 70.916 10.4277 71.8819 11.6126C72.8479 12.7974 73.3958 14.2679 73.4407 15.796C73.4856 17.324 73.025 18.8242 72.1303 20.0637C71.2357 21.3033 69.957 22.213 68.4926 22.6517C67.0282 23.0903 65.4599 23.0335 64.0311 22.4899C62.6023 21.9464 61.3928 20.9465 60.5902 19.6455L57.989 21.25Z" fill="#19A8F6"/>
<circle cx="66.5" cy="16" r="4" fill="#19A8F6"/>
</svg>
